<svg t="1609895288444" class="icon" viewBox="0 0 1024 1024" version="1.1" xmlns="http://www.w3.org/2000/svg" p-id="15330" width="64" height="64"><path d="M768 785.066667a17.015467 17.015467 0 0 1-12.066133-5.000534l-256-256a17.0496 17.0496 0 0 1 0-24.132266l256-256a17.0496 17.0496 0 1 1 24.132266 24.132266L536.132267 512l243.933866 243.933867A17.0496 17.0496 0 0 1 768 785.066667z m-256 0a17.015467 17.015467 0 0 1-12.066133-5.000534l-256-256a17.0496 17.0496 0 0 1 0-24.132266l256-256a17.0496 17.0496 0 1 1 24.132266 24.132266L280.132267 512l243.933866 243.933867A17.0496 17.0496 0 0 1 512 785.066667z" p-id="15331" fill="#1296db"></path></svg>