<svg t="1609895395757" class="icon" viewBox="0 0 1024 1024" version="1.1" xmlns="http://www.w3.org/2000/svg" p-id="16125" width="64" height="64"><path d="M512 785.066667a17.0496 17.0496 0 0 1-12.066133-29.1328L743.867733 512 499.933867 268.066133a17.0496 17.0496 0 1 1 24.132266-24.132266l256 256a17.0496 17.0496 0 0 1 0 24.132266l-256 256A17.015467 17.015467 0 0 1 512 785.066667z m-256 0a17.0496 17.0496 0 0 1-12.066133-29.1328L487.867733 512 243.933867 268.066133a17.0496 17.0496 0 1 1 24.132266-24.132266l256 256a17.0496 17.0496 0 0 1 0 24.132266l-256 256A17.015467 17.015467 0 0 1 256 785.066667z" p-id="16126" fill="#1296db"></path></svg>