<svg t="1609896373279" class="icon" viewBox="0 0 1024 1024" version="1.1" xmlns="http://www.w3.org/2000/svg" p-id="19726" width="64" height="64"><path d="M524.155871 16.516129a82.580645 82.580645 0 0 1 82.580645 82.580645l0.033032 25.401807a386.213161 386.213161 0 0 1 301.683613 339.868903l27.218581 280.245677a82.844903 82.844903 0 0 1 67.28671 75.643871l0.165161 5.54942a82.580645 82.580645 0 0 1-82.580645 82.580645h-281.930323a115.778065 115.778065 0 0 1-108.147613 98.931613l-6.276129 0.165161a115.612903 115.612903 0 0 1-114.456774-99.063742L127.768774 908.387097a82.580645 82.580645 0 0 1-15.095742-163.773936l27.218581-280.245677a386.213161 386.213161 0 0 1 301.683613-339.868903V99.096774a82.580645 82.580645 0 0 1 82.580645-82.580645z m80.929032 891.870968h-161.858064a82.448516 82.448516 0 0 0 80.46658 66.064516l5.351226-0.132129a82.580645 82.580645 0 0 0 74.685936-60.316903l1.354322-5.615484z m315.458065-132.129032h-792.774194a49.548387 49.548387 0 1 0 0 99.096774h792.774194c27.383742 0 49.548387-22.197677 49.548387-48.953807l-0.132129-4.294193a49.548387 49.548387 0 0 0-49.416258-45.848774z m-396.254968-627.612904l-9.348129 0.132129a353.048774 353.048774 0 0 0-342.181161 318.761291L146.002581 743.225806h756.339613l-26.756129-275.654193A353.048774 353.048774 0 0 0 533.80129 148.77729l-9.51329-0.132129z m-0.132129 99.096774a16.516129 16.516129 0 1 1 0 33.032259 199.217548 199.217548 0 0 0-198.259613 179.827612 16.516129 16.516129 0 1 1-32.867097-3.237161A232.249806 232.249806 0 0 1 524.155871 247.741935z m0-198.193548a49.548387 49.548387 0 0 0-49.548387 49.548387v19.687226c13.047742-1.651613 26.293677-2.708645 39.704774-3.038968l9.645419-0.132129 10.107871 0.132129c13.411097 0.330323 26.657032 1.354323 39.671742 3.038968V99.096774a49.548387 49.548387 0 0 0-49.548387-49.548387z" p-id="19727" fill="#1296db"></path></svg>