<svg t="1609835003004" class="icon" viewBox="0 0 1024 1024" version="1.1" xmlns="http://www.w3.org/2000/svg" p-id="6826" width="64" height="64"><path d="M609.932 508.527L469.015 457.74l111.699-148.51c11.066-14.712 11.258-34.893 0.43-45.075-10.828-10.182-28.577-6.509-39.643 8.204L409.41 447.982c-4.262 5.667-6.904 12.144-7.932 18.549a29.667 29.667 0 0 0-0.492 5.642l-0.001 0.077v0.03c-0.064 8.133 2.594 15.698 7.995 20.776a21.646 21.646 0 0 0 2.429 1.965 28.627 28.627 0 0 0 9.203 5.462l142.569 51.382-113.574 151.003c-11.032 14.668-11.198 34.813-0.37 44.994 10.828 10.182 28.55 6.545 39.582-8.124l131.693-175.092c4.652-6.185 7.364-13.342 8.142-20.317 3.735-14.792-4.484-30.67-18.722-35.802z" p-id="6827" fill="#1296db"></path><path d="M951.457 220.166c0-17.788-1.974-34.199-30.409-47.879C886.42 155.628 515.888 3 515.888 3h-1.238S144.118 155.628 109.49 172.287c-28.434 13.68-30.409 30.091-30.409 47.879 0 25.421-3.812 261.022 3.049 309.505 51.299 362.514 432.52 479.362 432.52 479.362h1.238s381.221-116.848 432.52-479.362c6.86-48.483 3.049-284.084 3.049-309.505z m-52.673 309.467c-38.816 274.296-358.302 419.793-382.896 430.611h-1.238c-24.594-10.818-344.081-156.315-382.896-430.611-5.4-38.157-3.4-261.578-3.4-281.584 0-13.999 1.554-26.915 23.932-37.682C177.99 198.001 480.377 72.233 514.65 57.983h1.238C550.161 72.232 852.548 198 878.252 210.367c22.378 10.766 23.932 23.682 23.932 37.682 0 20.006 2 243.427-3.4 281.584z" p-id="6828" fill="#1296db"></path></svg>