<svg t="1609838097126" class="icon" viewBox="0 0 1024 1024" version="1.1" xmlns="http://www.w3.org/2000/svg" p-id="11844" width="64" height="64"><path d="M853.216 247.584l-443.552 0 0-17.056c0-37.696-30.56-68.256-68.256-68.256l-170.592 0c-37.696 0-68.224 30.56-68.224 68.256l0 562.976c0 37.696 30.56 68.256 68.224 68.256l682.4 0c37.696 0 68.256-30.56 68.256-68.256l0-477.696c0-37.696-30.56-68.256-68.256-68.256zM136.672 230.496c0-18.816 15.328-34.112 34.112-34.112l170.592 0c18.816 0 34.112 15.296 34.112 34.112l0 51.168 477.696 0c18.816 0 34.112 15.296 34.112 34.112l0 34.112-750.624 0 0-119.424zM853.216 827.616l-682.4 0c-18.816 0-34.112-15.328-34.112-34.112l0-409.44 750.624 0 0 409.44c0 18.816-15.328 34.112-34.112 34.112z" p-id="11845" fill="#1296db"></path></svg>