<svg t="1609828492248" class="icon" viewBox="0 0 1024 1024" version="1.1" xmlns="http://www.w3.org/2000/svg" p-id="9049" width="64" height="64"><path d="M467.2 748.8A44.8 44.8 0 1 0 512 704a44.8 44.8 0 0 0-44.8 44.8zM512 640a40.106667 40.106667 0 0 1-40.106667-40.106667V230.826667a40.106667 40.106667 0 0 1 80.213334 0v369.066666A40.106667 40.106667 0 0 1 512 640z m0-640a512 512 0 1 0 512 512A512 512 0 0 0 512 0z m0 72.106667a439.893333 439.893333 0 0 1 170.666667 845.226666A439.893333 439.893333 0 0 1 200.96 200.96a439.04 439.04 0 0 1 311.04-128z" fill="#1296db" p-id="9050"></path></svg>