<svg t="1609895983268" class="icon" viewBox="0 0 1024 1024" version="1.1" xmlns="http://www.w3.org/2000/svg" p-id="18400" width="64" height="64"><path d="M0 0h1024v1024H0z" fill="#1296db" fill-opacity=".01" p-id="18401"></path><path d="M512 64c194.4 0 352 160 352 357.312 0 122.432-101.632 290.336-304.864 503.712l-24.64 25.6a31.68 31.68 0 0 1-42.24 2.432l-3.008-2.72-12.32-12.704C265.632 718.24 160 546.144 160 421.312 160 223.968 317.6 64 512 64z m0 64.96c-159.04 0-288 130.88-288 292.352 0 98.816 91.104 250.976 276.544 447.68l11.456 12.064 11.456-12.096 22.72-24.32C716.256 659.648 800 516.064 800 421.248c0-161.44-128.96-292.32-288-292.32z m0 129.92c88.352 0 160 72.736 160 162.432 0 89.696-71.648 162.4-160 162.4s-160-72.704-160-162.4c0-89.696 71.648-162.432 160-162.432z m0 64.96c-53.024 0-96 43.648-96 97.472 0 53.824 42.976 97.44 96 97.44s96-43.616 96-97.44-42.976-97.44-96-97.44z" fill="#1296db" p-id="18402"></path></svg>