<svg t="1609834867527" class="icon" viewBox="0 0 1024 1024" version="1.1" xmlns="http://www.w3.org/2000/svg" p-id="4214" width="64" height="64"><path d="M633.018182 996.072727v-165.236363H384C172.218182 828.509091 0 656.290909 0 444.509091S172.218182 60.509091 384 60.509091h256C851.781818 60.509091 1024 232.727273 1024 444.509091c0 97.745455-37.236364 193.163636-104.727273 262.981818L672.581818 954.181818l-39.563636 41.890909z m46.545454-214.109091V884.363636c67.490909-67.490909 200.145455-200.145455 204.8-207.127272 60.509091-62.836364 93.090909-144.290909 93.090909-232.727273 0-186.181818-151.272727-337.454545-337.454545-337.454546h-256C197.818182 107.054545 46.545455 258.327273 46.545455 444.509091s151.272727 337.454545 337.454545 337.454545H679.563636z" p-id="4215" fill="#1296db"></path><path d="M260.654545 435.2m-37.236363 0a37.236364 37.236364 0 1 0 74.472727 0 37.236364 37.236364 0 1 0-74.472727 0Z" p-id="4216" fill="#1296db"></path><path d="M512 435.2m-37.236364 0a37.236364 37.236364 0 1 0 74.472728 0 37.236364 37.236364 0 1 0-74.472728 0Z" p-id="4217" fill="#1296db"></path><path d="M763.345455 435.2m-37.236364 0a37.236364 37.236364 0 1 0 74.472727 0 37.236364 37.236364 0 1 0-74.472727 0Z" p-id="4218" fill="#1296db"></path></svg>