<svg t="1609831912510" class="icon" viewBox="0 0 1024 1024" version="1.1" xmlns="http://www.w3.org/2000/svg" p-id="9857" width="64" height="64"><path d="M802.762805 726.392239c-46.748681 0-88.550272 20.723392-116.262666 53.195869L350.54182 574.119128c8.594228-18.413605 13.407886-38.811504 13.407886-60.296064 0-22.24674-5.139151-43.351221-14.332812-62.224762L690.036085 259.945592c27.606255 30.18695 67.910781 49.25154 112.727731 49.25154 83.112922 0 150.779077-65.650525 150.779077-146.343477 0-80.69093-67.666156-146.343477-150.779077-146.343477-83.163464 0-150.802327 65.652547-150.802327 146.343477 0 22.492376 5.275615 43.81419 14.659316 62.87878L326.391654 417.276985c-27.686112-30.515475-68.154395-49.82368-113.245286-49.82368-83.139204 0-150.776045 65.650525-150.776045 146.369759 0 80.663637 67.637852 146.317195 150.776045 146.317195 45.881373 0 87.000643-19.962224 114.686755-51.428906L664.389863 814.562432c-7.995807 17.840454-12.428374 37.530759-12.428374 58.199565 0 80.664648 67.637852 146.317195 150.802327 146.317195 83.112922 0 150.779077-65.652547 150.779077-146.317195C953.542893 792.042764 885.875727 726.392239 802.762805 726.392239L802.762805 726.392239zM802.762805 57.522297c59.780532 0 108.488236 47.239953 108.488236 105.332369 0 58.064112-48.708715 105.331358-108.488236 105.331358-59.858367 0-108.513507-47.267246-108.513507-105.331358C694.250309 104.788532 742.905449 57.522297 802.762805 57.522297L802.762805 57.522297zM213.145358 619.129151c-59.859378 0-108.514518-47.239953-108.514518-105.305076 0-58.092416 48.65514-105.358651 108.514518-105.358651 35.055193 0 66.278262 16.235227 86.158606 41.393209 0.490261 1.74068 1.16854 3.48136 2.175345 5.140161 1.470784 2.474556 3.399481 4.540729 5.630423 6.172237 9.274529 15.503374 14.576426 33.452999 14.576426 52.653043 0 19.744891-5.62739 38.238353-15.445755 54.040937-0.599433 0.733876-1.224137 1.494033-1.74068 2.309787-0.516543 0.788461-0.95323 1.605226-1.332297 2.420981C283.638855 600.662982 250.541674 619.129151 213.145358 619.129151L213.145358 619.129151zM802.762805 978.068084c-59.858367 0-108.513507-47.269268-108.513507-105.306087 0-18.438876 4.896547-35.789068 13.517058-50.911352 1.006804-0.978501 1.93173-2.12177 2.720192-3.343885 0.924926-1.387894 1.603205-2.856656 2.119748-4.326429 19.476006-28.201644 52.626761-46.775974 90.155499-46.775974 59.780532 0 108.488236 47.267246 108.488236 105.358651C911.252052 930.798817 862.543337 978.068084 802.762805 978.068084L802.762805 978.068084zM802.762805 978.068084" p-id="9858" fill="#1296db"></path></svg>